<?xml version="1.0" encoding="UTF-8" standalone="no"?>
<svg
   xmlns:sketch="http://www.bohemiancoding.com/sketch/ns"
   xmlns:dc="http://purl.org/dc/elements/1.1/"
   xmlns:cc="http://creativecommons.org/ns#"
   xmlns:rdf="http://www.w3.org/1999/02/22-rdf-syntax-ns#"
   xmlns:svg="http://www.w3.org/2000/svg"
   xmlns="http://www.w3.org/2000/svg"
   xmlns:sodipodi="http://sodipodi.sourceforge.net/DTD/sodipodi-0.dtd"
   xmlns:inkscape="http://www.inkscape.org/namespaces/inkscape"
   id="svg12"
   version="1.1"
   viewBox="0 0 35.860184 40"
   height="40"
   width="35.860184"
   sodipodi:docname="heroku.svg"
   inkscape:version="0.92.2 2405546, 2018-03-11">
  <sodipodi:namedview
     pagecolor="#ffffff"
     bordercolor="#666666"
     borderopacity="1"
     objecttolerance="10"
     gridtolerance="10"
     guidetolerance="10"
     inkscape:pageopacity="0"
     inkscape:pageshadow="2"
     inkscape:window-width="1916"
     inkscape:window-height="969"
     id="namedview8"
     showgrid="false"
     inkscape:pagecheckerboard="true"
     inkscape:zoom="16.68772"
     inkscape:cx="11.617996"
     inkscape:cy="13.484274"
     inkscape:window-x="1920"
     inkscape:window-y="90"
     inkscape:window-maximized="0"
     inkscape:current-layer="svg12" />
  <metadata
     id="metadata16">
    <rdf:RDF>
      <cc:Work
         rdf:about="">
        <dc:format>image/svg+xml</dc:format>
        <dc:type
           rdf:resource="http://purl.org/dc/dcmitype/StillImage" />
        <dc:title>logo</dc:title>
      </cc:Work>
    </rdf:RDF>
  </metadata>
  <!-- Generator: Sketch 3.3.3 (12072) - http://www.bohemiancoding.com/sketch -->
  <title
     id="title2">logo</title>
  <desc
     id="desc4">Created with Sketch.</desc>
  <defs
     id="defs6" />
  <path
     style="fill:#ffffff;fill-opacity:1"
     sketch:type="MSShapeGroup"
     id="logo"
     d="M 32.274167,0 H 3.5860186 C 1.6057394,0 0,1.612 0,3.6 V 36.4 C 0,38.388 1.6057394,40 3.5860186,40 H 32.274167 c 1.980279,0 3.586018,-1.612 3.586018,-3.6 V 3.6 c 0,-1.988 -1.605739,-3.6 -3.586018,-3.6 z m 1.593786,36.4 c 0,0.8825 -0.714713,1.6 -1.593786,1.6 H 3.5860186 C 2.707444,38 1.9922325,37.2825 1.9922325,36.4 V 3.6 C 1.9922325,2.7175 2.707444,2 3.5860186,2 H 32.274167 c 0.879073,0 1.593786,0.7175 1.593786,1.6 z M 8.9650464,34 13.44757,30 8.9650464,26 Z M 25.160403,17.7875 C 24.357533,16.972 22.883281,16 20.420383,16 c -2.700969,0 -5.481627,0.7055 -7.470872,1.3555 V 6 H 8.9650464 v 17.346 l 2.8145266,-1.28 C 11.824896,22.0455 16.369179,20 20.420383,20 c 2.022614,0 2.470867,1.1215 2.490291,2.055 V 34 h 3.984465 V 22 c 0.0025,-0.256 -0.02142,-2.4725 -1.734736,-4.2125 z M 19.922325,12.5 H 23.90679 C 25.708765,10.45 26.626188,8.272 26.895139,6 h -3.984465 c -0.439287,2.267 -1.422454,4.4375 -2.988349,6.5 z" />
</svg>
